<svg width="158" height="49" viewBox="0 0 158 49" fill="none" xmlns="http://www.w3.org/2000/svg">
<path d="M69.3776 33.7088C68.2454 33.7088 67.246 33.5061 66.3794 33.1008C65.5128 32.6954 64.8349 32.1154 64.3456 31.3606C63.8564 30.6058 63.6118 29.6972 63.6118 28.635V28.0479H66.3374V28.635C66.3374 29.5155 66.61 30.1795 67.1551 30.6268C67.7003 31.0601 68.4411 31.2767 69.3776 31.2767C70.328 31.2767 71.0339 31.088 71.4952 30.7106C71.9704 30.3332 72.208 29.851 72.208 29.2639C72.208 28.8586 72.0892 28.5301 71.8516 28.2785C71.6279 28.0269 71.2925 27.8243 70.8452 27.6705C70.4119 27.5028 69.8808 27.349 69.2518 27.2092L68.7695 27.1044C67.7632 26.8808 66.8965 26.6012 66.1697 26.2658C65.4569 25.9163 64.9047 25.462 64.5134 24.9029C64.136 24.3438 63.9473 23.617 63.9473 22.7224C63.9473 21.8279 64.1569 21.0661 64.5763 20.4371C65.0096 19.7941 65.6106 19.3049 66.3794 18.9695C67.1621 18.62 68.0776 18.4453 69.126 18.4453C70.1743 18.4453 71.1038 18.627 71.9145 18.9904C72.7392 19.3399 73.3821 19.871 73.8434 20.5839C74.3186 21.2828 74.5562 22.1633 74.5562 23.2256V23.8546H71.8306V23.2256C71.8306 22.6665 71.7188 22.2193 71.4952 21.8838C71.2855 21.5344 70.978 21.2828 70.5726 21.129C70.1673 20.9613 69.6851 20.8774 69.126 20.8774C68.2873 20.8774 67.6653 21.0382 67.26 21.3596C66.8686 21.6671 66.6729 22.0935 66.6729 22.6386C66.6729 23.002 66.7638 23.3095 66.9455 23.5611C67.1412 23.8127 67.4277 24.0224 67.8051 24.1901C68.1825 24.3578 68.6647 24.5046 69.2518 24.6304L69.734 24.7352C70.7823 24.9589 71.6908 25.2454 72.4596 25.5948C73.2424 25.9443 73.8504 26.4055 74.2837 26.9786C74.717 27.5517 74.9336 28.2855 74.9336 29.1801C74.9336 30.0746 74.703 30.8644 74.2418 31.5493C73.7945 32.2202 73.1515 32.7513 72.3128 33.1427C71.4882 33.5201 70.5097 33.7088 69.3776 33.7088Z" fill="white"/>
<path d="M76.9977 33.4153V18.7388H83.036C83.9585 18.7388 84.7692 18.9275 85.4681 19.3049C86.1809 19.6683 86.7331 20.1855 87.1244 20.8564C87.5298 21.5274 87.7324 22.3241 87.7324 23.2466V23.5401C87.7324 24.4487 87.5228 25.2454 87.1035 25.9303C86.6981 26.6012 86.139 27.1254 85.4261 27.5028C84.7273 27.8662 83.9306 28.0479 83.036 28.0479H79.7652V33.4153H76.9977ZM79.7652 25.5319H82.7634C83.4204 25.5319 83.9515 25.3502 84.3569 24.9868C84.7622 24.6234 84.9649 24.1272 84.9649 23.4982V23.2885C84.9649 22.6595 84.7622 22.1633 84.3569 21.7999C83.9515 21.4365 83.4204 21.2548 82.7634 21.2548H79.7652V25.5319Z" fill="white"/>
<path d="M89.6512 33.4153V18.7388H92.4188V24.7981H97.87V18.7388H100.638V33.4153H97.87V27.3141H92.4188V33.4153H89.6512Z" fill="white"/>
<path d="M107.184 33.4153V28.3624L102.194 18.7388H105.276L108.379 25.0287H108.757L111.86 18.7388H114.942L109.952 28.3624V33.4153H107.184Z" fill="white"/>
<path d="M116.494 33.4153V18.7388H121.756L124.671 31.5283H125.048V18.7388H127.774V33.4153H122.511L119.597 20.6258H119.219V33.4153H116.494Z" fill="white"/>
<path d="M129.617 33.4153L133.915 26.0142L129.659 18.7388H132.804L135.718 24.0433H136.096L139.01 18.7388H142.155L137.899 26.0142L142.197 33.4153H139.052L136.096 27.985H135.718L132.762 33.4153H129.617Z" fill="white"/>
<path d="M144.033 33.4153V18.7388H153.258V21.2548H146.8V24.7981H152.755V27.3141H146.8V33.4153H144.033Z" fill="white"/>
<path d="M155.232 33.4153V18.7388H158V33.4153H155.232Z" fill="white"/>
<path fill-rule="evenodd" clip-rule="evenodd" d="M10.6581 9.95215L18.5687 22.1776C20.0632 22.0303 22.2161 21.8715 24.3549 21.8215C26.4336 21.7729 28.5865 21.8237 30.1018 22.1213L38.3299 9.95794L39.4297 26.0881C39.8974 29.944 37.2084 37.6452 24.3227 40.4801L24.1413 40.52L23.9611 40.4749C21.5701 39.8772 17.9858 38.4673 14.9487 36.1555C11.9113 33.8435 9.32431 30.549 9.18803 26.188L9.18652 26.1398L10.6581 9.95215ZM34.7475 27.0598L25.2614 33.7237C26.8424 33.9705 30.3432 34.1679 31.6984 32.9832C33.0535 31.7985 34.2958 28.5406 34.7475 27.0598ZM23.6804 33.7237L14.1942 27.0598C14.646 28.5406 15.8882 31.7985 17.2433 32.9832C18.5985 34.1679 22.0993 33.9705 23.6804 33.7237Z" fill="url(#paint0_linear_116_164)"/>
<path fill-rule="evenodd" clip-rule="evenodd" d="M24.2423 46.9036C36.7578 46.9036 46.9036 36.7578 46.9036 24.2423C46.9036 11.7268 36.7578 1.58102 24.2423 1.58102C11.7268 1.58102 1.58102 11.7268 1.58102 24.2423C1.58102 36.7578 11.7268 46.9036 24.2423 46.9036ZM24.2423 48.4847C37.631 48.4847 48.4847 37.631 48.4847 24.2423C48.4847 10.8537 37.631 0 24.2423 0C10.8537 0 0 10.8537 0 24.2423C0 37.631 10.8537 48.4847 24.2423 48.4847Z" fill="url(#paint1_linear_116_164)"/>
<defs>
<linearGradient id="paint0_linear_116_164" x1="35.0947" y1="-3.32073" x2="4.07405" y2="-2.02806" gradientUnits="userSpaceOnUse">
<stop stop-color="#00FFA3"/>
<stop offset="1" stop-color="#DC1FFF"/>
</linearGradient>
<linearGradient id="paint1_linear_116_164" x1="41.4672" y1="-21.0526" x2="-8.18117" y2="-18.9648" gradientUnits="userSpaceOnUse">
<stop stop-color="#00FFA3"/>
<stop offset="1" stop-color="#DC1FFF"/>
</linearGradient>
</defs>
</svg>
